<?xml version="1.0" standalone="no"?>
<!DOCTYPE svg PUBLIC "-//W3C//DTD SVG 20010904//EN"
 "http://www.w3.org/TR/2001/REC-SVG-20010904/DTD/svg10.dtd">
<svg version="1.0" xmlns="http://www.w3.org/2000/svg"
 width="156.000000pt" height="156.000000pt" viewBox="0 0 156.000000 156.000000"
 preserveAspectRatio="xMidYMid meet">
<metadata>
Created by potrace 1.14, written by Peter Selinger 2001-2017
</metadata>
<g transform="translate(0.000000,156.000000) scale(0.100000,-0.100000)"
fill="#000000" stroke="none">
<path d="M739 1540 c-121 -32 -212 -93 -285 -192 -82 -112 -118 -260 -93 -385
5 -28 11 -61 12 -72 1 -12 4 -21 8 -21 3 0 12 -18 19 -40 7 -22 18 -40 23 -40
6 0 8 -3 4 -6 -5 -5 15 -33 51 -70 8 -8 9 -15 2 -19 -13 -8 -13 -25 1 -25 5 0
7 5 4 10 -3 6 -3 10 2 10 12 -1 43 -26 43 -35 0 -4 -7 -2 -15 5 -12 10 -16 9
-21 -4 -8 -21 3 -49 16 -41 6 4 9 -4 7 -17 -1 -14 3 -22 11 -21 6 2 12 -6 12
-17 0 -11 -5 -19 -11 -17 -6 1 -14 -5 -16 -13 -4 -12 -3 -12 5 -2 5 8 13 13
18 13 5 -1 9 9 9 22 0 12 -5 21 -12 20 -8 -2 -12 6 -10 20 1 13 -3 21 -10 20
-7 -2 -13 7 -13 19 0 21 0 21 22 2 12 -10 18 -13 14 -7 -12 21 8 15 24 -6 7
-11 17 -18 21 -16 3 3 18 -4 31 -15 14 -11 28 -16 32 -13 3 3 6 1 6 -5 0 -7 9
-12 20 -12 11 0 20 -6 20 -14 0 -20 13 -27 30 -14 12 8 12 9 -2 4 -10 -3 -18
-1 -18 4 0 14 12 13 63 -5 50 -17 147 -25 147 -12 0 5 8 6 17 3 9 -4 19 -3 22
2 9 14 71 23 71 11 0 -6 -5 -7 -10 -4 -15 9 -23 -21 -11 -42 9 -15 10 -13 5
11 -5 21 -4 27 5 21 8 -4 14 0 18 13 3 11 17 23 31 27 15 4 30 12 35 18 5 9
10 7 18 -6 6 -9 15 -15 20 -11 13 8 7 -28 -6 -39 -6 -5 -4 -7 5 -4 18 4 21 53
3 50 -24 -5 -13 23 17 45 16 12 33 22 37 22 11 0 70 71 105 127 39 61 69 155
75 235 12 145 -40 281 -147 389 -131 132 -311 185 -481 139z"/>
<path d="M376 823 c-6 -14 -5 -15 5 -6 7 7 10 15 7 18 -3 3 -9 -2 -12 -12z"/>
<path d="M385 799 c-4 -6 -5 -12 -2 -15 2 -3 7 2 10 11 7 17 1 20 -8 4z"/>
<path d="M356 787 c3 -10 9 -15 12 -12 3 3 0 11 -7 18 -10 9 -11 8 -5 -6z"/>
<path d="M330 759 c0 -5 5 -7 10 -4 6 3 10 8 10 11 0 2 -4 4 -10 4 -5 0 -10
-5 -10 -11z"/>
<path d="M375 759 c-4 -6 -5 -12 -2 -15 2 -3 7 2 10 11 7 17 1 20 -8 4z"/>
<path d="M415 750 c6 -10 4 -12 -8 -7 -10 3 -17 2 -17 -3 0 -13 27 -13 35 -1
3 5 0 13 -6 17 -8 5 -9 3 -4 -6z"/>
<path d="M347 711 c-4 -17 -3 -21 5 -13 5 5 8 16 6 23 -3 8 -7 3 -11 -10z"/>
<path d="M374 713 c2 -9 8 -18 15 -19 6 -1 7 0 1 3 -5 2 -8 9 -5 13 3 5 1 11
-4 14 -5 4 -8 -2 -7 -11z"/>
<path d="M426 721 c-4 -5 3 -7 14 -4 23 6 26 13 6 13 -8 0 -17 -4 -20 -9z"/>
<path d="M450 699 c0 -5 5 -7 10 -4 6 3 10 8 10 11 0 2 -4 4 -10 4 -5 0 -10
-5 -10 -11z"/>
<path d="M433 680 c1 -14 8 -24 15 -22 6 1 12 -7 12 -18 0 -11 -5 -19 -12 -17
-6 1 -13 -11 -14 -28 -2 -20 0 -25 5 -16 5 8 7 20 4 28 -3 8 0 13 8 11 9 -2
14 6 14 20 0 12 -4 22 -10 21 -5 0 -13 10 -17 23 -7 22 -7 22 -5 -2z"/>
<path d="M395 670 c3 -5 8 -10 11 -10 2 0 4 5 4 10 0 6 -5 10 -11 10 -5 0 -7
-4 -4 -10z"/>
<path d="M293 655 c-4 -5 -3 -7 2 -3 4 4 15 2 23 -5 11 -8 14 -8 9 0 -4 6 -1
13 5 16 7 3 3 4 -10 4 -13 -1 -26 -6 -29 -12z"/>
<path d="M363 662 c10 -4 18 -12 17 -17 -1 -5 4 -11 12 -13 11 -3 11 -2 0 6
-8 5 -13 13 -12 18 0 5 -7 10 -17 11 -17 3 -17 2 0 -5z"/>
<path d="M1246 658 c3 -5 10 -6 15 -3 13 9 11 12 -6 12 -8 0 -12 -4 -9 -9z"/>
<path d="M410 640 c0 -5 5 -10 10 -10 6 0 10 5 10 10 0 6 -4 10 -10 10 -5 0
-10 -4 -10 -10z"/>
<path d="M1195 639 c-16 -7 -15 -8 7 -6 15 2 30 5 33 8 8 8 -18 7 -40 -2z"/>
<path d="M350 620 c0 -5 5 -10 10 -10 6 0 10 5 10 10 0 6 -4 10 -10 10 -5 0
-10 -4 -10 -10z"/>
<path d="M1155 620 c-3 -5 -1 -10 4 -10 6 0 11 5 11 10 0 6 -2 10 -4 10 -3 0
-8 -4 -11 -10z"/>
<path d="M1239 628 c-3 -6 -6 -48 -4 -48 1 0 9 8 16 17 12 14 12 16 0 8 -11
-6 -13 -4 -8 8 5 13 1 25 -4 15z"/>
<path d="M400 605 c0 -8 4 -15 10 -15 5 0 7 7 4 15 -4 8 -8 15 -10 15 -2 0 -4
-7 -4 -15z"/>
<path d="M550 605 c0 -8 4 -15 10 -15 5 0 7 7 4 15 -4 8 -8 15 -10 15 -2 0 -4
-7 -4 -15z"/>
<path d="M310 598 c0 -4 4 -8 9 -8 6 0 12 4 15 8 3 5 -1 9 -9 9 -8 0 -15 -4
-15 -9z"/>
<path d="M477 595 c3 -10 1 -15 -8 -13 -7 2 -15 -5 -17 -14 -2 -10 1 -18 7
-18 6 0 8 7 4 15 -3 10 -1 15 8 13 7 -2 15 5 17 15 2 9 -1 17 -7 17 -6 0 -8
-7 -4 -15z"/>
<path d="M1180 600 c0 -5 5 -10 10 -10 6 0 10 5 10 10 0 6 -4 10 -10 10 -5 0
-10 -4 -10 -10z"/>
<path d="M375 590 c6 -10 4 -12 -9 -7 -11 5 -15 3 -10 -5 5 -8 2 -9 -10 -5
-10 4 -15 3 -11 -3 8 -13 18 -13 40 3 14 11 15 16 5 22 -9 6 -11 4 -5 -5z"/>
<path d="M600 590 c0 -5 -5 -9 -12 -7 -6 1 -13 -7 -15 -18 -3 -18 -2 -18 5 -2
4 10 12 18 17 17 5 -1 11 3 13 9 2 6 1 11 -2 11 -3 0 -6 -4 -6 -10z"/>
<path d="M1156 587 c3 -10 9 -15 12 -12 3 3 0 11 -7 18 -10 9 -11 8 -5 -6z"/>
<path d="M380 560 c-11 -8 -8 -9 13 -4 20 5 27 3 25 -7 -2 -8 7 -14 22 -16 24
-2 24 -2 2 5 -13 4 -23 12 -22 17 2 14 -22 17 -40 5z"/>
<path d="M490 560 c0 -5 5 -10 10 -10 6 0 10 5 10 10 0 6 -4 10 -10 10 -5 0
-10 -4 -10 -10z"/>
<path d="M620 560 c8 -5 22 -9 30 -9 10 0 8 3 -5 9 -27 12 -43 12 -25 0z"/>
<path d="M1090 566 c0 -2 7 -7 16 -10 8 -3 12 -2 9 4 -6 10 -25 14 -25 6z"/>
<path d="M1180 566 c0 -2 7 -6 15 -10 8 -3 15 -1 15 4 0 6 -7 10 -15 10 -8 0
-15 -2 -15 -4z"/>
<path d="M313 545 c0 -8 4 -15 9 -15 4 0 8 4 8 9 0 6 -4 12 -8 15 -5 3 -9 -1
-9 -9z"/>
<path d="M590 541 c0 -6 7 -8 15 -4 10 3 15 0 13 -8 -2 -9 5 -13 19 -12 14 2
22 -2 20 -10 -3 -18 46 -15 50 3 3 9 1 11 -4 5 -13 -15 -44 -18 -41 -3 2 8 -5
12 -19 11 -13 -2 -22 2 -20 9 1 7 -6 14 -15 16 -10 2 -18 -1 -18 -7z"/>
<path d="M670 541 c0 -6 4 -13 10 -16 6 -3 7 1 4 9 -7 18 -14 21 -14 7z"/>
<path d="M1054 538 c-3 -5 -3 -12 0 -15 3 -4 6 -2 6 3 0 5 9 10 20 11 11 1 19
-3 17 -10 -1 -6 7 -12 18 -14 18 -3 18 -2 2 5 -10 4 -18 12 -18 17 2 13 -38
15 -45 3z"/>
<path d="M361 522 c-1 -15 -5 -21 -13 -16 -7 5 -8 3 -3 -5 10 -18 28 2 22 25
-4 15 -5 14 -6 -4z"/>
<path d="M390 531 c0 -9 30 -24 36 -18 2 1 -6 8 -16 15 -11 7 -20 8 -20 3z"/>
<path d="M956 524 c-7 -19 2 -37 15 -28 13 8 7 -28 -6 -39 -6 -5 -4 -7 5 -4
19 5 20 53 2 49 -9 -2 -11 4 -7 18 7 24 0 27 -9 4z"/>
<path d="M1233 525 c0 -8 4 -12 9 -9 5 3 6 10 3 15 -9 13 -12 11 -12 -6z"/>
<path d="M477 519 c7 -7 15 -10 18 -7 3 3 -2 9 -12 12 -14 6 -15 5 -6 -5z"/>
<path d="M545 520 c-3 -5 -1 -10 4 -10 6 0 11 5 11 10 0 6 -2 10 -4 10 -3 0
-8 -4 -11 -10z"/>
<path d="M730 520 c8 -5 20 -10 25 -10 6 0 3 5 -5 10 -8 5 -19 10 -25 10 -5 0
-3 -5 5 -10z"/>
<path d="M776 515 c-6 -16 19 -33 31 -21 4 3 -1 6 -10 6 -10 0 -14 5 -11 15 4
8 4 15 1 15 -3 0 -8 -7 -11 -15z"/>
<path d="M921 514 c0 -11 3 -14 6 -6 3 7 2 16 -1 19 -3 4 -6 -2 -5 -13z"/>
<path d="M1025 520 c-3 -5 -1 -10 4 -10 6 0 11 5 11 10 0 6 -2 10 -4 10 -3 0
-8 -4 -11 -10z"/>
<path d="M596 507 c3 -10 9 -15 12 -12 3 3 0 11 -7 18 -10 9 -11 8 -5 -6z"/>
<path d="M860 509 c0 -5 -4 -8 -8 -5 -4 2 -14 0 -22 -5 -11 -7 -9 -8 9 -6 21
3 45 27 27 27 -3 0 -6 -5 -6 -11z"/>
<path d="M1195 511 c-6 -11 13 -26 22 -17 4 3 1 6 -6 6 -7 0 -9 5 -6 10 3 6 4
10 1 10 -3 0 -7 -4 -11 -9z"/>
<path d="M396 497 c3 -10 9 -15 12 -12 3 3 0 11 -7 18 -10 9 -11 8 -5 -6z"/>
<path d="M454 498 c-4 -7 -3 -8 4 -4 7 4 12 2 12 -3 0 -6 7 -11 15 -11 8 0 14
-6 13 -12 -2 -8 7 -13 22 -13 15 0 24 5 23 13 -2 6 6 12 17 12 11 0 19 -6 18
-12 -2 -8 7 -13 22 -13 16 0 24 5 22 14 -2 10 4 12 25 7 23 -5 25 -4 10 5 -21
12 -51 4 -42 -11 3 -5 -3 -10 -14 -10 -14 0 -19 5 -16 20 2 11 -1 23 -7 26 -6
4 -8 2 -4 -4 4 -6 -3 -12 -16 -14 -13 -2 -22 -9 -20 -16 1 -6 -7 -12 -19 -12
-11 0 -18 4 -15 9 3 5 -5 16 -19 25 -17 11 -26 13 -31 4z"/>
<path d="M510 500 c0 -5 5 -10 10 -10 6 0 10 5 10 10 0 6 -4 10 -10 10 -5 0
-10 -4 -10 -10z"/>
<path d="M710 485 c-7 -13 -17 -22 -22 -19 -14 9 -21 -23 -9 -43 9 -15 10 -13
5 11 -5 21 -4 27 5 22 6 -4 14 0 17 8 3 9 9 14 13 12 4 -3 8 4 8 15 2 25 -1
24 -17 -6z"/>
<path d="M894 495 c-4 -8 -9 -13 -13 -11 -4 3 -8 -5 -8 -17 -2 -18 0 -19 8 -7
20 31 30 50 24 50 -3 0 -8 -7 -11 -15z"/>
<path d="M1035 494 c-10 -8 -14 -14 -9 -14 6 0 16 6 23 13 10 10 12 8 9 -8 -1
-11 -10 -26 -18 -32 -13 -12 -13 -14 0 -25 8 -7 17 -22 18 -33 3 -16 1 -18 -9
-7 -7 6 -17 12 -23 12 -5 0 -1 -6 9 -14 11 -8 23 -12 27 -10 12 8 3 45 -13 55
-12 8 -12 10 0 18 16 10 25 47 13 55 -4 2 -16 -2 -27 -10z"/>
<path d="M1139 503 c-1 -5 -1 -11 0 -15 0 -5 -6 -8 -14 -8 -8 0 -15 -5 -15
-10 0 -7 7 -7 20 0 11 6 18 15 15 20 -3 5 5 11 17 13 l23 4 -22 2 c-13 0 -24
-2 -24 -6z"/>
<path d="M430 485 c0 -8 4 -15 10 -15 5 0 7 7 4 15 -4 8 -8 15 -10 15 -2 0 -4
-7 -4 -15z"/>
<path d="M316 482 c-3 -5 1 -9 9 -9 8 0 12 4 9 9 -3 4 -7 8 -9 8 -2 0 -6 -4
-9 -8z"/>
<path d="M740 486 c0 -2 7 -6 15 -10 8 -3 15 -1 15 4 0 6 -7 10 -15 10 -8 0
-15 -2 -15 -4z"/>
<path d="M930 486 c0 -2 7 -7 16 -10 8 -3 12 -2 9 4 -6 10 -25 14 -25 6z"/>
<path d="M1081 474 c0 -11 3 -14 6 -6 3 7 2 16 -1 19 -3 4 -6 -2 -5 -13z"/>
<path d="M1170 475 c0 -8 2 -15 4 -15 2 0 6 7 10 15 3 8 1 15 -4 15 -6 0 -10
-7 -10 -15z"/>
<path d="M838 473 c7 -3 16 -2 19 1 4 3 -2 6 -13 5 -11 0 -14 -3 -6 -6z"/>
<path d="M1001 473 c-1 -17 16 -25 25 -12 4 7 3 9 -4 5 -5 -3 -13 0 -15 6 -4
9 -6 10 -6 1z"/>
<path d="M1195 469 c-4 -6 -5 -12 -2 -15 2 -3 7 2 10 11 7 17 1 20 -8 4z"/>
<path d="M345 460 c-3 -6 1 -7 9 -4 18 7 21 14 7 14 -6 0 -13 -4 -16 -10z"/>
<path d="M390 461 c8 -5 18 -7 22 -5 4 3 8 1 8 -5 0 -5 -5 -12 -10 -14 -6 -3
-5 -4 2 -3 23 5 14 29 -12 33 -18 2 -21 1 -10 -6z"/>
<path d="M454 455 c-10 -26 3 -44 27 -38 13 4 20 2 16 -3 -3 -6 -1 -16 4 -24
7 -11 8 -8 5 10 -2 18 -9 25 -25 24 -14 0 -21 5 -21 19 0 17 2 18 18 6 15 -13
16 -12 3 4 -16 21 -20 21 -27 2z"/>
<path d="M739 465 c-8 -35 -2 -50 21 -50 19 1 25 6 24 23 0 15 5 22 19 22 17
0 18 -2 6 -17 -13 -16 -12 -17 4 -4 21 17 9 35 -19 29 -12 -2 -18 -11 -16 -24
2 -14 -4 -20 -18 -21 -18 -2 -19 1 -10 13 10 11 10 14 1 14 -7 0 -9 5 -6 10 3
6 4 10 1 10 -3 0 -6 -2 -7 -5z"/>
<path d="M894 458 c-3 -5 -3 -12 0 -15 3 -4 6 -2 6 3 0 5 9 10 20 11 11 1 18
-2 15 -8 -4 -5 4 -14 17 -20 13 -6 25 -19 25 -30 1 -12 -3 -17 -9 -13 -7 4 -8
2 -4 -5 11 -17 26 -3 23 21 -2 11 -14 26 -28 33 -13 8 -23 17 -21 22 3 11 -37
12 -44 1z"/>
<path d="M1153 452 c2 -12 6 -24 10 -28 3 -4 4 4 2 16 -6 30 -16 40 -12 12z"/>
<path d="M1217 455 c-4 -8 -3 -16 1 -19 4 -3 9 4 9 15 2 23 -3 25 -10 4z"/>
<path d="M626 444 c-11 -8 -16 -14 -10 -14 13 0 39 18 34 24 -3 2 -14 -2 -24
-10z"/>
<path d="M360 431 c-7 -15 -7 -19 5 -17 8 1 18 6 22 11 4 4 2 5 -4 1 -7 -4
-13 -3 -13 3 0 5 6 12 13 14 9 4 9 6 0 6 -7 1 -17 -8 -23 -18z"/>
<path d="M540 440 c-8 -5 -10 -10 -5 -10 6 0 17 5 25 10 8 5 11 10 5 10 -5 0
-17 -5 -25 -10z"/>
<path d="M705 440 c-3 -5 -1 -10 4 -10 6 0 11 5 11 10 0 6 -2 10 -4 10 -3 0
-8 -4 -11 -10z"/>
<path d="M840 435 c0 -8 -6 -14 -12 -12 -8 1 -13 -8 -13 -23 0 -15 5 -24 13
-22 6 1 12 -7 12 -18 0 -11 -6 -19 -12 -17 -8 1 -13 -8 -13 -23 0 -15 5 -24
12 -23 8 2 12 -6 10 -20 -1 -13 3 -21 11 -19 6 1 12 -7 12 -17 0 -14 -5 -18
-19 -14 -10 3 -21 1 -24 -4 -3 -5 7 -8 21 -7 22 1 27 6 27 25 0 14 -5 23 -12
22 -8 -2 -12 6 -10 20 1 13 -3 21 -10 19 -7 -1 -13 7 -13 18 0 11 6 19 13 18
7 -2 12 7 12 22 0 15 -5 24 -12 23 -7 -2 -13 6 -13 18 0 11 4 18 9 14 6 -3 15
4 21 15 7 13 7 20 0 20 -5 0 -10 -7 -10 -15z"/>
<path d="M1090 440 c0 -5 5 -10 10 -10 6 0 10 5 10 10 0 6 -4 10 -10 10 -5 0
-10 -4 -10 -10z"/>
<path d="M873 430 c2 -8 10 -14 17 -12 8 2 10 -3 7 -13 -4 -8 -2 -15 4 -15 6
0 9 7 7 16 -2 8 -7 14 -12 14 -5 -1 -13 4 -18 12 -8 10 -9 10 -5 -2z"/>
<path d="M916 427 c3 -10 9 -15 12 -12 3 3 0 11 -7 18 -10 9 -11 8 -5 -6z"/>
<path d="M557 423 c-10 -10 -8 -23 4 -23 5 0 7 5 3 12 -5 8 -2 9 10 5 10 -4
15 -3 11 3 -7 12 -19 13 -28 3z"/>
<path d="M643 423 c-7 -3 -13 -9 -13 -15 0 -7 5 -6 14 2 12 9 15 8 13 -10 -1
-14 -7 -20 -22 -18 -27 4 -30 -39 -4 -53 13 -6 19 -6 19 1 0 5 -6 10 -13 10
-7 0 -13 8 -14 18 -1 13 5 18 19 18 14 -1 22 6 24 21 4 24 -4 33 -23 26z"/>
<path d="M1005 419 c-4 -6 -4 -13 -1 -16 3 -4 6 -1 6 6 0 7 5 9 12 5 7 -4 8
-3 4 4 -9 15 -13 15 -21 1z"/>
<path d="M1135 420 c6 -10 4 -12 -8 -7 -10 3 -17 2 -17 -3 0 -13 27 -13 35 -1
3 5 0 13 -6 17 -8 5 -9 3 -4 -6z"/>
<path d="M521 404 c0 -11 3 -14 6 -6 3 7 2 16 -1 19 -3 4 -6 -2 -5 -13z"/>
<path d="M596 405 c-3 -8 -1 -15 4 -15 6 0 10 7 10 15 0 8 -2 15 -4 15 -2 0
-6 -7 -10 -15z"/>
<path d="M390 401 c0 -5 5 -13 10 -16 6 -3 10 -2 10 4 0 5 -4 13 -10 16 -5 3
-10 2 -10 -4z"/>
<path d="M436 395 c4 -8 8 -15 10 -15 2 0 4 7 4 15 0 8 -4 15 -10 15 -5 0 -7
-7 -4 -15z"/>
<path d="M708 403 c7 -3 16 -2 19 1 4 3 -2 6 -13 5 -11 0 -14 -3 -6 -6z"/>
<path d="M850 400 c0 -5 5 -10 10 -10 6 0 10 5 10 10 0 6 -4 10 -10 10 -5 0
-10 -4 -10 -10z"/>
<path d="M935 400 c-3 -5 -3 -10 2 -11 4 -1 -3 -5 -17 -10 l-25 -8 25 2 c14 1
23 6 22 11 -2 5 2 13 10 17 9 6 9 9 1 9 -6 0 -15 -4 -18 -10z"/>
<path d="M470 391 c0 -5 5 -13 10 -16 6 -3 10 -2 10 4 0 5 -4 13 -10 16 -5 3
-10 2 -10 -4z"/>
<path d="M758 393 c7 -3 16 -2 19 1 4 3 -2 6 -13 5 -11 0 -14 -3 -6 -6z"/>
<path d="M533 373 c-3 -7 -10 -10 -16 -6 -6 3 -7 1 -3 -5 10 -16 26 -15 26 1
0 7 9 13 20 13 11 0 20 -6 20 -13 0 -7 5 -13 10 -13 7 0 8 6 2 17 -12 20 -52
25 -59 6z"/>
<path d="M710 386 c0 -2 9 -6 20 -9 11 -3 18 -1 14 4 -5 9 -34 13 -34 5z"/>
<path d="M790 385 c0 -5 5 -17 10 -25 5 -8 10 -10 10 -5 0 6 -5 17 -10 25 -5
8 -10 11 -10 5z"/>
<path d="M995 370 c-7 -22 2 -43 15 -35 5 3 11 -5 13 -17 5 -20 5 -20 3 2 -1
15 -7 24 -15 22 -10 -2 -12 4 -7 23 8 30 0 34 -9 5z"/>
<path d="M1076 373 c-6 -14 -5 -15 5 -6 7 7 10 15 7 18 -3 3 -9 -2 -12 -12z"/>
<path d="M1137 379 c7 -7 15 -10 18 -7 3 3 -2 9 -12 12 -14 6 -15 5 -6 -5z"/>
<path d="M873 358 c-2 -16 1 -18 10 -9 7 7 8 14 1 21 -6 6 -10 2 -11 -12z"/>
<path d="M410 358 c0 -4 4 -8 9 -8 6 0 12 4 15 8 3 5 -1 9 -9 9 -8 0 -15 -4
-15 -9z"/>
<path d="M450 366 c0 -2 7 -7 16 -10 8 -3 12 -2 9 4 -6 10 -25 14 -25 6z"/>
<path d="M657 358 c-7 -5 0 -6 17 -4 16 3 31 7 33 10 8 8 -37 2 -50 -6z"/>
<path d="M770 363 c17 -8 11 -19 -10 -20 -13 -1 -18 2 -14 9 4 7 2 8 -5 4 -17
-11 -3 -26 22 -22 24 3 31 28 9 32 -7 1 -8 0 -2 -3z"/>
<path d="M950 361 c0 -5 5 -13 10 -16 6 -3 10 -2 10 4 0 5 -4 13 -10 16 -5 3
-10 2 -10 -4z"/>
<path d="M1025 360 c3 -5 11 -10 16 -10 6 0 7 5 4 10 -3 6 -11 10 -16 10 -6 0
-7 -4 -4 -10z"/>
<path d="M1099 363 c-1 -5 -1 -12 0 -17 1 -5 -5 -6 -14 -3 -8 4 -15 2 -15 -4
0 -6 8 -9 17 -7 9 2 15 7 14 13 -1 5 6 12 16 16 17 7 17 8 1 8 -10 1 -19 -2
-19 -6z"/>
<path d="M494 352 c3 -5 0 -13 -6 -15 -9 -4 -10 -6 -1 -6 17 -1 25 16 12 25
-7 4 -9 3 -5 -4z"/>
<path d="M440 331 c-7 -14 -7 -22 0 -26 6 -4 10 -3 9 2 -4 21 2 34 13 27 7 -4
8 -3 4 4 -10 16 -14 15 -26 -7z"/>
<path d="M550 340 c0 -5 5 -10 10 -10 6 0 10 5 10 10 0 6 -4 10 -10 10 -5 0
-10 -4 -10 -10z"/>
<path d="M695 341 c-3 -5 0 -13 6 -17 7 -4 9 -3 5 4 -3 5 0 13 6 15 9 4 10 6
1 6 -6 1 -14 -3 -18 -8z"/>
<path d="M899 348 c-5 -21 -3 -55 4 -51 5 3 7 14 4 24 -4 14 0 19 15 19 10 0
16 -5 13 -10 -9 -15 21 -23 42 -11 15 9 13 10 -10 5 -20 -5 -27 -3 -25 7 2 11
-40 28 -43 17z"/>
<path d="M1166 342 c-3 -5 1 -9 9 -9 8 0 12 4 9 9 -3 4 -7 8 -9 8 -2 0 -6 -4
-9 -8z"/>
<path d="M670 325 c0 -8 4 -15 10 -15 5 0 7 7 4 15 -4 8 -8 15 -10 15 -2 0 -4
-7 -4 -15z"/>
<path d="M1051 323 c-1 -27 8 -33 34 -22 19 9 19 9 -2 5 -16 -3 -23 2 -26 18
l-4 21 -2 -22z"/>
<path d="M518 323 c7 -3 16 -2 19 1 4 3 -2 6 -13 5 -11 0 -14 -3 -6 -6z"/>
<path d="M580 326 c0 -2 7 -6 15 -10 8 -3 15 -1 15 4 0 6 -7 10 -15 10 -8 0
-15 -2 -15 -4z"/>
<path d="M850 320 c0 -5 5 -10 10 -10 6 0 10 5 10 10 0 6 -4 10 -10 10 -5 0
-10 -4 -10 -10z"/>
<path d="M1110 319 c0 -5 6 -8 13 -6 6 1 11 -5 9 -13 -2 -8 0 -11 4 -7 15 15
11 33 -7 34 -11 1 -19 -2 -19 -8z"/>
<path d="M468 313 c6 -2 10 -9 7 -14 -4 -5 1 -6 10 -2 13 5 14 7 3 14 -7 5
-17 8 -23 8 -5 0 -4 -3 3 -6z"/>
<path d="M556 307 c3 -10 9 -15 12 -12 3 3 0 11 -7 18 -10 9 -11 8 -5 -6z"/>
<path d="M758 313 c7 -3 16 -2 19 1 4 3 -2 6 -13 5 -11 0 -14 -3 -6 -6z"/>
<path d="M516 299 c3 -5 10 -7 15 -4 5 4 9 -1 9 -9 0 -9 5 -16 10 -16 17 0 -5
33 -24 36 -9 1 -14 -2 -10 -7z"/>
<path d="M616 301 c-3 -5 2 -15 12 -22 15 -13 16 -12 4 3 -12 15 -11 17 7 15
13 -1 19 -8 18 -20 -1 -13 5 -21 20 -23 27 -5 33 5 22 31 -9 19 -9 19 -5 -2 3
-16 -1 -21 -15 -20 -11 1 -17 8 -16 20 2 20 -37 35 -47 18z"/>
<path d="M710 300 c0 -5 8 -6 18 -3 15 6 15 5 3 -10 -7 -9 -9 -17 -3 -17 12 0
23 26 15 34 -10 10 -33 7 -33 -4z"/>
<path d="M796 287 c5 -20 3 -27 -7 -25 -7 2 -15 -5 -17 -14 -2 -10 1 -18 7
-18 6 0 7 7 4 17 -4 11 -3 14 5 9 17 -10 26 19 13 41 -9 15 -10 13 -5 -10z"/>
<path d="M916 293 c-6 -14 -5 -15 5 -6 7 7 10 15 7 18 -3 3 -9 -2 -12 -12z"/>
<path d="M979 303 c-1 -5 -1 -11 0 -15 0 -4 -9 -7 -22 -5 -14 1 -21 -3 -19
-12 2 -8 -3 -11 -13 -8 -8 4 -15 2 -15 -4 0 -6 8 -9 18 -7 9 2 16 9 15 16 -2
7 7 11 20 9 14 -1 21 3 19 12 -2 8 3 11 13 8 8 -4 15 -2 15 3 0 12 -29 14 -31
3z"/>
<path d="M871 284 c0 -11 3 -14 6 -6 3 7 2 16 -1 19 -3 4 -6 -2 -5 -13z"/>
<path d="M426 282 c-2 -4 4 -8 14 -8 10 0 16 4 14 8 -3 4 -9 8 -14 8 -5 0 -11
-4 -14 -8z"/>
<path d="M503 279 c9 -6 15 -14 12 -20 -4 -5 -1 -9 4 -9 6 0 11 4 11 8 0 12
-22 32 -34 32 -6 0 -3 -5 7 -11z"/>
<path d="M585 280 c3 -5 8 -10 11 -10 2 0 4 5 4 10 0 6 -5 10 -11 10 -5 0 -7
-4 -4 -10z"/>
<path d="M756 274 c-9 -24 -2 -26 12 -4 7 11 8 20 3 20 -5 0 -12 -7 -15 -16z"/>
<path d="M1020 279 c0 -4 6 -9 13 -12 8 -3 14 0 14 7 0 7 -6 13 -14 13 -7 0
-13 -4 -13 -8z"/>
<path d="M577 257 c3 -5 14 -7 24 -4 13 4 19 0 19 -13 0 -13 -6 -17 -22 -14
-21 4 -21 4 -3 -5 24 -10 38 0 33 25 -2 11 -13 18 -30 18 -14 1 -24 -2 -21 -7z"/>
<path d="M990 260 c0 -5 5 -10 10 -10 6 0 10 5 10 10 0 6 -4 10 -10 10 -5 0
-10 -4 -10 -10z"/>
<path d="M894 235 c1 -11 7 -19 15 -17 9 2 11 -3 7 -13 -3 -9 -2 -13 4 -10 6
3 10 1 10 -6 0 -7 3 -10 6 -7 9 9 -16 49 -26 43 -5 -3 -10 3 -13 12 -3 14 -4
13 -3 -2z"/>
<path d="M550 230 c-8 -15 -8 -18 3 -14 8 3 14 11 14 19 0 20 -4 19 -17 -5z"/>
<path d="M650 232 c6 -12 15 -20 21 -17 5 4 9 2 9 -4 0 -5 -5 -12 -10 -14 -6
-3 -5 -4 2 -3 7 2 13 8 13 14 0 7 -3 11 -7 10 -4 -2 -14 6 -23 17 -16 19 -16
19 -5 -3z"/>
<path d="M700 240 c-11 -8 -8 -9 13 -4 20 5 27 3 25 -7 -2 -8 7 -14 22 -16 24
-2 24 -2 2 5 -13 4 -23 12 -22 17 2 14 -22 17 -40 5z"/>
<path d="M805 240 c-3 -6 1 -7 9 -4 18 7 21 14 7 14 -6 0 -13 -4 -16 -10z"/>
<path d="M940 240 c-18 -12 -2 -12 25 0 13 6 15 9 5 9 -8 0 -22 -4 -30 -9z"/>
<path d="M515 231 c-3 -5 -2 -12 3 -15 5 -3 9 1 9 9 0 17 -3 19 -12 6z"/>
<path d="M1025 220 c-3 -6 1 -7 9 -4 18 7 21 14 7 14 -6 0 -13 -4 -16 -10z"/>
<path d="M710 211 c0 -9 30 -24 36 -18 2 1 -6 8 -16 15 -11 7 -20 8 -20 3z"/>
<path d="M625 199 c-11 -16 -1 -19 13 -3 7 8 8 14 3 14 -5 0 -13 -5 -16 -11z"/>
<path d="M781 200 c-9 -5 -4 -7 13 -7 29 0 32 2 13 10 -8 3 -20 2 -26 -3z"/>
<path d="M960 200 c-12 -7 -10 -9 8 -7 12 0 22 5 22 9 0 11 -12 10 -30 -2z"/>
<path d="M575 180 c3 -5 8 -10 11 -10 2 0 4 5 4 10 0 6 -5 10 -11 10 -5 0 -7
-4 -4 -10z"/>
<path d="M870 179 c0 -5 5 -7 10 -4 6 3 10 8 10 11 0 2 -4 4 -10 4 -5 0 -10
-5 -10 -11z"/>
<path d="M746 164 c-5 -14 -4 -15 9 -4 17 14 19 20 6 20 -5 0 -12 -7 -15 -16z"/>
<path d="M889 163 c-13 -16 -12 -17 4 -4 16 13 21 21 13 21 -2 0 -10 -8 -17
-17z"/>
<path d="M776 151 c-4 -5 3 -7 14 -4 23 6 26 13 6 13 -8 0 -17 -4 -20 -9z"/>
<path d="M666 142 c-3 -5 1 -9 9 -9 8 0 12 4 9 9 -3 4 -7 8 -9 8 -2 0 -6 -4
-9 -8z"/>
<path d="M707 139 c7 -7 15 -10 18 -7 3 3 -2 9 -12 12 -14 6 -15 5 -6 -5z"/>
<path d="M855 140 c3 -5 8 -10 11 -10 2 0 4 5 4 10 0 6 -5 10 -11 10 -5 0 -7
-4 -4 -10z"/>
</g>
</svg>
