<svg xmlns="http://www.w3.org/2000/svg" width="245.171" height="71.359" viewBox="0 0 245.171 71.359"><defs><style>.a{fill:#d5af80;}</style></defs><path class="a" d="M1266.671,1273.619a28.951,28.951,0,0,1,5.922.99c4.271,1.192,8.412,3.594,10.636,7.432s2.016,9.251-1.254,12.247c2.969-4.142,1.4-10.364-2.416-13.745s-9.22-4.389-14.317-4.245c-13.271.373-25.306,7.439-36.67,14.3a11.066,11.066,0,0,1-8.12,15.48q5.846,7.259,11.873,14.366c1.057,1.248,2.384,2.607,4.012,2.467,1.865-.16,2.93-2.147,3.655-3.874l14.657-34.866,13.765,32.864c1.266,3.022,3.26,6.554,6.537,6.518a53.222,53.222,0,0,1-12.51-.175c1.151.422,2.41-.647,2.657-1.852a6.471,6.471,0,0,0-.647-3.568l-2.187-5.641a3.231,3.231,0,0,0-1.006-1.579,3.263,3.263,0,0,0-1.866-.388l-11.014-.019a2.8,2.8,0,0,0-1.531.285,2.855,2.855,0,0,0-.976,1.442l-2.31,5.669a6.965,6.965,0,0,0-.758,3.624,2.4,2.4,0,0,0,2.568,2.143c-5.724.635-11.983,1.152-16.794-2.015-6.448-4.244-8.167-13.787-15.077-17.227a9.411,9.411,0,0,0,11.714-11.349l-11.827,7.248a3.092,3.092,0,0,0-1.914,3.384q-.018,6.656-.034,13.313a10.621,10.621,0,0,0,.639,4.49,3.635,3.635,0,0,0,3.593,2.282l-12-.017a3.6,3.6,0,0,0,3.66-2.232,10.632,10.632,0,0,0,.647-4.53l-.078-13.46c-2.393,1.941-6.145,1.91-8.068,4.321a12.577,12.577,0,0,0-1.641,3.692c-3.182,8.75-13.173,13.727-22.47,13.214a23.888,23.888,0,0,1-13.227-4.644,20.327,20.327,0,0,1-4.821-26.79,19.484,19.484,0,0,1,2.686-3.5,14.019,14.019,0,0,1,5.286-3.324c-5.824,5.706-8.568,14.576-6.342,22.417s9.626,14.107,17.772,14.374,16.2-5.96,17.41-14.019c-5.177,1.135-10.556,1.987-15.733.881s-10.145-4.548-11.7-9.607c-1.848-6,1.919-12.917,7.7-15.382s12.836-.8,17.546,3.355,7.2,10.449,7.6,16.719l6.387-2.415a1.992,1.992,0,0,0,1.654-2.335q.038-4.122.076-8.243a10.532,10.532,0,0,0-.635-4.569,3.6,3.6,0,0,0-3.686-2.243q6.183-.338,12.38-.309c4.438.022,9.669.639,11.841,4.508,6.642-4.687,13.354-9.414,20.864-12.528A40.5,40.5,0,0,1,1266.671,1273.619Zm-83.143,34.7a44.228,44.228,0,0,0,11.014-1.651.752.752,0,0,0,.661-.884,57.388,57.388,0,0,0-.388-6.659c-1.057-6.005-5.177-12.44-12.931-13.127-4.152-.368-7.97.331-11.169,3.079-3.148,2.7-4.89,7.248-2.375,11.792a12.988,12.988,0,0,0,6.228,5.78A21,21,0,0,0,1183.527,1308.318Zm70.78-17.177h-.221c-2.276,5.8-4.554,11.606-6.859,17.5h13.628Zm-42.775,8.99a2.615,2.615,0,0,0,.472-.13,82.868,82.868,0,0,0,12.363-7.9.779.779,0,0,0,.18-.717c-.892-2.3-2.41-4.1-4.937-4.376-2.612-.286-5.27-.151-7.909-.2-.044,0-.089.065-.168.13Z" transform="translate(-1039.527 -1273.553)"/><path class="a" d="M265.363,1377.771a5.371,5.371,0,0,0,5.423-3.678q3.144-7.507,6.276-15.03c2.319-5.556,4.623-11.12,6.975-16.663a1.281,1.281,0,0,0-.228-1.5c-2.654-3.254-6.01-4.271-10.123-3.062-.349.1-.711.166-1.233.286.144-.3.172-.493.259-.528,3.681-1.423,7.365-2.267,11.117-.18a13.031,13.031,0,0,1,5.629,6.71c1.8,4.352,3.355,8.808,4.991,13.229,2.2,5.946,4.259,11.95,6.615,17.834a29.6,29.6,0,0,0,7.261,10.8,10.753,10.753,0,0,0,8.969,3.076,5.322,5.322,0,0,1,.624-.029c.087,0,.172.031.368.241a4.423,4.423,0,0,1-.765.416A12.678,12.678,0,0,1,304.9,1387a29.173,29.173,0,0,1-7.988-11.664c-1.349-3.32-2.459-6.73-3.634-10.123a1.018,1.018,0,0,0-1.136-.826q-6.788.041-13.579,0a.987.987,0,0,0-1.095.757c-1.1,2.943-2.257,5.867-3.384,8.8-.9,2.329-.268,3.443,2.167,3.883.069.012.129.1.188.305a19.861,19.861,0,0,1-3.569.164c-1.25.014-2.5,0-3.753,0H265.36Zm20.486-33.573-.246.027c-2.4,6.146-4.8,12.3-7.218,18.493h14.057C290.172,1356.494,288.435,1350.193,285.849,1344.2Z" transform="translate(-265.36 -1328.059)"/><path class="a" d="M1381.978,1807.781a8.005,8.005,0,0,1-1.885-.947,8.229,8.229,0,0,0-3.461-1.028c-.148-.01-.294-.016-.441-.018-.082,0-.405.053-.461,0-.106-.093.538-.3.633-.328a4.4,4.4,0,0,1,1.741-.09,5.967,5.967,0,0,1,.625.115c1.035.243,2.007.7,3.022,1.019a4.828,4.828,0,0,0,2.3.246,3.385,3.385,0,0,0,2.089-1.413,2.694,2.694,0,0,1-.776,1.391,4.919,4.919,0,0,1-1.34.9,2.269,2.269,0,0,1-.448.172,2.609,2.609,0,0,1-.55.054,4.469,4.469,0,0,1-.8-.022A2.191,2.191,0,0,1,1381.978,1807.781Z" transform="translate(-1232.014 -1736.5)"/><path class="a" d="M907.33,1363.773v32.293c0,2.775,1.064,3.951,3.811,4.234a.525.525,0,0,1,.417.377H899.536c-.009-.093-.019-.186-.03-.281.259-.035.5-.089.757-.1a3.527,3.527,0,0,0,3.515-3.624q.014-15.189,0-30.378a3.656,3.656,0,0,0-3.6-3.769c-.217-.013-.434-.057-.647-.085-.012-.078-.022-.155-.032-.233a2.017,2.017,0,0,1,.539-.156c5.183,0,10.37-.154,15.546.047,5.014.193,8.257,3.075,9.318,7.144,1.3,4.977-1.055,10.767-5.3,12.889a9.05,9.05,0,0,1-1.668.614c-.564.155-1.152.22-1.812.339,3.923,3.145,6.005,7.65,9.135,11.317.928,1.086,1.881,2.156,2.894,3.159a8.648,8.648,0,0,0,5.745,2.746c.13.008.259.129.518.248-.211.129-.3.215-.388.22-3.153.154-6.247.044-9.047-1.72a16.624,16.624,0,0,1-4.554-4.712c-2.308-3.25-4.6-6.509-6.941-9.734a6.289,6.289,0,0,0-4.342-2.847l.027-.259c.273-.044.545-.1.819-.129a38.4,38.4,0,0,0,5.548-.6,7.526,7.526,0,0,0,5.6-7.486,11.73,11.73,0,0,0-1.125-5.79,6.509,6.509,0,0,0-6.048-3.714C911.794,1363.761,909.626,1363.773,907.33,1363.773Z" transform="translate(-817.428 -1350.547)"/><path class="a" d="M598.15,1363.247h10.412c-.269.18-.388.32-.532.343-.291.047-.6-.01-.889.049a2.882,2.882,0,0,0-2.559,3.087c.056,6.94.035,13.879.013,20.819a17.586,17.586,0,0,1-.915,6.14,12.374,12.374,0,0,1-6.309,7.213,17.139,17.139,0,0,1-16.2-.287,12.538,12.538,0,0,1-6.828-11.449c-.129-7.3-.041-14.594-.045-21.891,0-2.652-.712-3.426-3.365-3.674-.146-.013-.286-.108-.4-.356h11.045l.047.211a3.4,3.4,0,0,1-.619.148c-2.155.119-3.171,1.182-3.172,3.342v20.372a16.405,16.405,0,0,0,1.126,6.462,11.025,11.025,0,0,0,9.774,7.195,11.734,11.734,0,0,0,13.13-10.982c.094-1.125.145-2.256.148-3.384q.021-9.784.006-19.569c0-2.261-1.022-3.329-3.273-3.435a4.9,4.9,0,0,1-.615-.107Z" transform="translate(-531.034 -1351.633)"/><path class="a" d="M1764.242,1732.884H1758.9c0,1.307-.078,2.579.045,3.832.039.388.617.735.869,1.012h-3.463c.906-.179,1.2-.777,1.188-1.653-.026-1.993-.019-3.989,0-5.983.009-.858-.2-1.527-1.165-1.727h3.6c-1.99.869-.741,2.622-1.2,4.021h5.376c.527-2.036.087-3.565-1.134-4.047h3.612c-.973.259-1.105,1-1.108,1.812-.008,1.9,0,3.811,0,5.716,0,.922.173,1.724,1.294,1.882h-3.656a1.474,1.474,0,0,0,1.09-1.57C1764.259,1735.118,1764.242,1734.049,1764.242,1732.884Z" transform="translate(-1563.383 -1669.48)"/><path class="a" d="M1367.32,1731.067c.012-2.937,2.2-4.984,5.317-4.978a5.022,5.022,0,1,1-.039,10.016C1369.478,1736.086,1367.307,1734.012,1367.32,1731.067Zm9.311.018a14.768,14.768,0,0,0-.788-2.511,3.574,3.574,0,0,0-6.322-.188,5.083,5.083,0,0,0-.041,5.35,3.516,3.516,0,0,0,4.012,1.755C1375.283,1735.063,1376.467,1733.339,1376.63,1731.086Z" transform="translate(-1224.702 -1667.522)"/><path class="a" d="M1109.933,1732.14c.929.465,1.759.981,1.906,2.159a2.1,2.1,0,0,1-1.648,2.618,7.419,7.419,0,0,1-1.941.22c-1.553-.027-3.115-.13-4.83-.2a1.409,1.409,0,0,0,1.294-1.627c-.01-2.021,0-4.044,0-6.066,0-.8-.259-1.394-1.143-1.553l.024-.22c1.878.1,3.764.13,5.632.321a2.293,2.293,0,0,1,1.839,1.53C1111.487,1730.357,1111.18,1731.1,1109.933,1732.14Zm-3.941.24a.085.085,0,0,0-.035.041.781.781,0,0,0,0,.241v.268l-.008,1.035-.009,1.4a1.656,1.656,0,0,0,.144.839.5.5,0,0,0,.227.22.725.725,0,0,0,.243.043l.846.049a8.565,8.565,0,0,0,1.4,0,2.1,2.1,0,0,0,.884-.259,1.628,1.628,0,0,0,.633-.776,2.562,2.562,0,0,0,.18-.991,2.62,2.62,0,0,0-.2-1.055,1.69,1.69,0,0,0-.694-.805,2.644,2.644,0,0,0-1.255-.259c-.676-.017-1.351.009-2.027,0C1106.235,1732.366,1106.071,1732.327,1105.992,1732.379Zm-.031-2.514a5.73,5.73,0,0,0,.1,1.57.67.67,0,0,0,.613.575,3.416,3.416,0,0,0,1.165.035,2.548,2.548,0,0,0,1.235-.445,1.9,1.9,0,0,0,.723-1.319,2.07,2.07,0,0,0-.507-1.571,2.834,2.834,0,0,0-1.749-.837c-.567-.078-1.553-.065-1.626.686a2.7,2.7,0,0,0,.026.529,7.054,7.054,0,0,1,.018.78Z" transform="translate(-994.957 -1668.723)"/><path class="a" d="M1268.89,1728.244c.855,0,1.712-.036,2.562.021a1.256,1.256,0,0,1,.766.452c1.671,2.014,3.314,4.05,4.97,6.083.162.2.344.378.518.567l.268-.048c-.1-1.846-.129-3.7-.353-5.532-.068-.566-.679-1.062-.987-1.512h2.869c-1.284.431-1.132,1.5-1.129,2.525.008,2.318,0,4.637-.211,7.118a6.66,6.66,0,0,1-.716-.663q-2.867-3.528-5.717-7.07a6.545,6.545,0,0,0-.488-.469,5.107,5.107,0,0,0-.129.868c.036,1.844.074,3.687.141,5.529.033.936.641,1.341,1.5,1.513h-3.861c1.583-.45,1.666-.593,1.7-2.348.027-1.553.109-3.092.165-4.637.054-1.474-.039-1.608-1.451-2.092l-.409-.142C1268.891,1728.351,1268.891,1728.3,1268.89,1728.244Z" transform="translate(-1139.011 -1669.387)"/><path class="a" d="M1567.05,1731v3.545c-.4-.422-.792-1.1-1.369-1.359a6.486,6.486,0,0,0-2.132-.185v4.492a6.027,6.027,0,0,0,6.593-2.2c-.373.841-.721,1.7-1.142,2.513-.082.158-.452.232-.69.233-2.436.017-4.873.01-7.358-.035,1.035-.1,1.264-.788,1.266-1.635,0-2.024.022-4.048-.009-6.072-.017-1.074-.188-1.241-1.329-1.618h7.932v2.482c-.5-1.121-1.035-1.988-2.151-2.1a25.011,25.011,0,0,0-2.749-.088c-.137,0-.388.286-.388.447-.035,1.062-.018,2.125-.018,3.174C1565.656,1732.818,1566.263,1732.542,1567.05,1731Z" transform="translate(-1393.212 -1669.776)"/><path class="a" d="M1467.86,1728.42h3.467c-1.081.259-1.314,1.036-1.294,2.016.027,1.424,0,2.857.01,4.286.016,1.76,1.068,2.735,2.92,2.728a2.7,2.7,0,0,0,3.014-2.77c0-1.49-.023-2.977,0-4.466a1.548,1.548,0,0,0-1.249-1.754h3.017c-1.223.316-1.254,1.217-1.276,2.071-.039,1.487-.028,2.977-.015,4.465a2.739,2.739,0,0,1-1.661,2.624,4.7,4.7,0,0,1-4.222.053,2.809,2.809,0,0,1-1.761-2.744c.016-1.553-.019-3.1.012-4.644C1468.841,1729.467,1468.784,1728.737,1467.86,1728.42Z" transform="translate(-1312.23 -1669.55)"/><path class="a" d="M1183.506,1736.727H1180.3c1.363-.568,1.637-1.7,2.06-2.729.765-1.861,1.569-3.711,2.253-5.6.234-.647.277-1.294,1.275-1.218.647,1.787,1.317,3.615,1.985,5.436a27.337,27.337,0,0,0,1.007,2.66,8.692,8.692,0,0,0,1.087,1.424h-3.47c.291-.216.828-.413.939-.751a2.376,2.376,0,0,0-.231-1.34c-.734-2.173-.744-2.155-3.053-2.116-.518.009-.827.149-.962.683-.115.454-.326.884-.487,1.328C1182.185,1735.942,1182.186,1735.942,1183.506,1736.727Zm1.6-8.054h-.2l-1.311,3.424h2.718c-.415-1.195-.81-2.313-1.2-3.428Z" transform="translate(-1061.887 -1668.464)"/><path class="a" d="M1852.64,1736.695a15.7,15.7,0,0,0,1.267-2.016q1.354-3.1,2.551-6.259c.233-.61.215-1.327,1.238-1.282.106.233.259.518.361.806q1.264,3.467,2.51,6.941a2.45,2.45,0,0,0,1.531,1.8h-3.937c1.367-.57,1.423-.692.956-1.994-.01-.027-.03-.052-.04-.079-.814-2.286-.814-2.3-3.206-2.123a1.154,1.154,0,0,0-.762.536,9.559,9.559,0,0,0-.527,1.407c-.534,1.424-.527,1.453.761,2.26Zm5.534-4.622-1.2-3.418-.211-.017c-.434,1.122-.866,2.244-1.325,3.435Z" transform="translate(-1647.211 -1668.432)"/><path class="a" d="M1645.869,1729.15c-1.954-.348-2.911.589-3.4,2.489v-2.929h8.1c.084.841.17,1.7.259,2.55l-.2.164c-.437-1.821-1.521-2.612-3.379-2.271,0,2.6-.043,5.21.044,7.817.013.405.615.791.867,1.092h-3.443a1.386,1.386,0,0,0,1.165-1.613C1645.849,1734.018,1645.869,1731.586,1645.869,1729.15Z" transform="translate(-1464.242 -1669.803)"/><path class="a" d="M2020.381,1737.5a5.086,5.086,0,0,0,6.1-2.459c-.312.915-.6,1.839-.958,2.736-.065.161-.419.287-.647.29-2.291.021-4.582.013-6.933-.038,1.1-.218,1.224-.977,1.209-1.879-.03-1.845.011-3.692-.02-5.538-.014-.848-.093-1.716-1.226-1.908h4.237a2.9,2.9,0,0,0-.946.3c-.327.292-.776.687-.789,1.05C2020.341,1732.517,2020.381,1734.984,2020.381,1737.5Z" transform="translate(-1791.091 -1669.794)"/><path class="a" d="M1948.15,1734.939c-.318.919-.615,1.846-.976,2.746a.782.782,0,0,1-.611.308c-2.317.022-4.633.014-7.008-.043,1.06-.168,1.245-.84,1.222-1.752-.049-1.965-.009-3.93-.018-5.9,0-1.052-.137-1.228-1.209-1.682h4.116c-1.682.717-1.682.717-1.682,2.627,0,1.786.035,3.574-.018,5.359-.019.693.23.953.876,1.02a4.471,4.471,0,0,0,4.369-1.642c.268-.351.518-.712.776-1.068Z" transform="translate(-1722.873 -1669.724)"/></svg>