<svg xmlns="http://www.w3.org/2000/svg" width="214.991" height="37.191" viewBox="0 0 214.991 37.191">
  <g id="Group_12647" data-name="Group 12647" transform="translate(19109.001 17355.999)">
    <path id="Path_20312" data-name="Path 20312" d="M94.215,29.616,96.991,22.9l-6.5-16.622h5.583l3.5,10.156h.063l3.344-10.156h5.551L99.766,29.616Zm56.932-14.6c0-5.172,3.753-9.336,8.768-9.336a5.934,5.934,0,0,1,5.141,2.461h.063V6.276h5.235v17.5h-5.235V21.888h-.063c-.758,1.546-2.838,2.492-5.141,2.492C154.743,24.381,151.147,20.312,151.147,15.013Zm5.235.063a4.369,4.369,0,1,0,8.737-.063,4.442,4.442,0,0,0-4.447-4.447A4.366,4.366,0,0,0,156.383,15.076Zm-47.375-.063c0-5.172,3.753-9.336,8.768-9.336a5.932,5.932,0,0,1,5.141,2.461h.063V6.276h5.236v17.5H122.98V21.888h-.063c-.757,1.546-2.838,2.492-5.141,2.492C112.6,24.381,109.008,20.312,109.008,15.013Zm5.236.063a4.369,4.369,0,1,0,8.736-.063,4.442,4.442,0,0,0-4.447-4.447A4.365,4.365,0,0,0,114.244,15.076Zm-75.953-.063c0-5.172,3.753-9.336,8.767-9.336A5.933,5.933,0,0,1,52.2,8.138h.063V6.276H57.5v17.5H52.263V21.888H52.2c-.758,1.546-2.839,2.492-5.142,2.492C41.886,24.381,38.291,20.312,38.291,15.013Zm5.235.063a4.369,4.369,0,1,0,8.737-.063,4.442,4.442,0,0,0-4.447-4.447A4.366,4.366,0,0,0,43.526,15.076Zm16.97-.094c0-5.235,3.564-9.3,8.673-9.3a6.805,6.805,0,0,1,5.141,2.081V.441h5.235V23.781H74.564V21.888H74.5c-.978,1.609-2.744,2.46-5.236,2.46C63.967,24.349,60.5,20.28,60.5,14.981Zm5.235-.032a4.293,4.293,0,0,0,4.384,4.511A4.386,4.386,0,0,0,74.6,14.95a4.432,4.432,0,0,0-8.863,0ZM0,16.558v-.5h5.93c.032,1.923.978,3.185,2.46,3.185A2.228,2.228,0,0,0,10.628,17c0-1.862-2.586-2.682-4.7-3.532C2.113,11.922.378,9.9.378,6.875.378,2.9,4.225,0,8.515,0a8.878,8.878,0,0,1,4.132.978,6.386,6.386,0,0,1,3.721,6.276h-5.9c-.252-1.671-.947-2.271-2.113-2.271a1.947,1.947,0,0,0-2.05,1.829c0,1.388,1.262,2.019,3.817,3.122,5.141,2.208,6.434,4.07,6.434,7.129,0,4.51-3.091,7.16-8.138,7.16C3.343,24.222,0,21.573,0,16.558Zm143.01,7.223V14.066c0-2.365-.82-3.469-2.744-3.469-2.113,0-3,1.168-3,3.532v9.651h-5.234V6.276h4.888V8.138h.063a5.033,5.033,0,0,1,4.762-2.461c3.154,0,6.5,1.766,6.5,6.939V23.781Zm-59.676,0V6.276h5.236v17.5Zm-53.18,0v-9.62c0-2.271-.883-3.564-2.807-3.564-1.987,0-2.933,1.168-2.933,3.344v9.84H19.177V.441h5.235V7.948a4.94,4.94,0,0,1,4.541-2.271c4.006,0,6.434,2.523,6.434,7.1V23.781Z" transform="translate(-19064.865 -17350.408)" fill="#091d33" stroke="rgba(0,0,0,0)" stroke-width="1"/>
    <path id="Path_20310" data-name="Path 20310" d="M233.452,150.894l-3,3.1a.486.486,0,0,1-.7,0l-3-3.1a2.228,2.228,0,0,1,.154-3.225,2.12,2.12,0,0,1,2.894.211l.306.315.306-.315a2.12,2.12,0,0,1,2.894-.211A2.227,2.227,0,0,1,233.452,150.894Z" transform="translate(-19209.014 -17500.637)" fill="#ca214c"/>
    <path id="Path_20311" data-name="Path 20311" d="M29.59,167.732l0,.015a12.775,12.775,0,0,0,22.735,8,12.181,12.181,0,0,0,1.67.119,12.774,12.774,0,0,0,4.3-24.8l3.105-4.519-4.416-3.211H51l-4.417,3.211,3.105,4.519a12.76,12.76,0,0,0-2.25,22.983,8.142,8.142,0,0,0,1.675-1.767,10.3,10.3,0,0,1-4.044-14.567,10.356,10.356,0,1,1-5.14-.117,15.052,15.052,0,0,1,1.307-2.585A12.778,12.778,0,0,0,29.59,167.732Zm24.168,5.787A12.722,12.722,0,0,0,46.59,155.7a10.394,10.394,0,0,1,7.394-3.077h.005a10.458,10.458,0,0,1,0,20.915C53.91,173.541,53.836,173.52,53.757,173.518Zm2.129-23.06a11.588,11.588,0,0,0-3.793,0l-2.316-3.367,1.977-1.437h4.471l1.976,1.437Z" transform="translate(-19138.586 -17499.33)" fill="#ca214c"/>
  </g>
</svg>
