<svg xmlns="http://www.w3.org/2000/svg">
    <defs>
        <symbol id="calendar" viewBox="0 0 16 16">
            <style>
                .a {
                    fill: #d5af80;
                }
            </style>
            <circle class="a" cx="0.625" cy="0.625" r="0.625" transform="translate(11.438 5.938)" />
            <path class="a"
                d="M13.5,1.25h-.812V.625a.625.625,0,0,0-1.25,0V1.25H8.594V.625a.625.625,0,0,0-1.25,0V1.25H4.531V.625a.625.625,0,0,0-1.25,0V1.25H2.5A2.5,2.5,0,0,0,0,3.75V13.5A2.5,2.5,0,0,0,2.5,16H7.281a.625.625,0,0,0,0-1.25H2.5A1.251,1.251,0,0,1,1.25,13.5V3.75A1.251,1.251,0,0,1,2.5,2.5h.781v.625a.625.625,0,0,0,1.25,0V2.5H7.344v.625a.625.625,0,0,0,1.25,0V2.5h2.844v.625a.625.625,0,0,0,1.25,0V2.5H13.5a1.251,1.251,0,0,1,1.25,1.25V7.313a.625.625,0,0,0,1.25,0V3.75A2.5,2.5,0,0,0,13.5,1.25Z" />
            <path class="a"
                d="M273.781,270a3.781,3.781,0,1,0,3.781,3.781A3.785,3.785,0,0,0,273.781,270Zm0,6.313a2.531,2.531,0,1,1,2.531-2.531A2.534,2.534,0,0,1,273.781,276.313Z"
                transform="translate(-261.563 -261.563)" />
            <path class="a"
                d="M372.531,331.281h-.281v-.656a.625.625,0,0,0-1.25,0v1.281a.625.625,0,0,0,.625.625h.906a.625.625,0,0,0,0-1.25Z"
                transform="translate(-359.406 -319.688)" />
            <circle class="a" cx="0.625" cy="0.625" r="0.625" transform="translate(8.719 5.938)" />
            <circle class="a" cx="0.625" cy="0.625" r="0.625" transform="translate(6 8.656)" />
            <circle class="a" cx="0.625" cy="0.625" r="0.625" transform="translate(3.281 5.938)" />
            <circle class="a" cx="0.625" cy="0.625" r="0.625" transform="translate(3.281 8.656)" />
            <circle class="a" cx="0.625" cy="0.625" r="0.625" transform="translate(3.281 11.375)" />
            <circle class="a" cx="0.625" cy="0.625" r="0.625" transform="translate(6 11.375)" />
            <circle class="a" cx="0.625" cy="0.625" r="0.625" transform="translate(6 5.938)" />
        </symbol>

        <symbol id="phone" viewBox="0 0 16 16">
            <style>
                .a {
                    fill: #d5af80;
                }
            </style>
            <path class="a"
                d="M7.718,11.424a13.465,13.465,0,0,0,5.858,5.858l1.956-1.956a.884.884,0,0,1,.907-.213,10.14,10.14,0,0,0,3.173.507.892.892,0,0,1,.889.889v3.1a.892.892,0,0,1-.889.889A15.11,15.11,0,0,1,4.5,5.389.892.892,0,0,1,5.389,4.5H8.5a.892.892,0,0,1,.889.889A10.1,10.1,0,0,0,9.9,8.562a.892.892,0,0,1-.222.907L7.718,11.424Z"
                transform="translate(-4.5 -4.5)" />
        </symbol>
    </defs>
</svg>